# xmcd
#
# Track frame offsets: 
#        150
#        19660
#        43575
#        67356
#        85087
#        105991
#        141765
#        171443
#        194725
#        215290
#        234860
#        258327
#        278837
#        311609
#        335052
#
# Disc length: 4800 seconds
#
# Revision: 0
# Processed by: cddbd v1.5.2PL0 Copyright (c) Steve Scherf et al.
# Submitted via: ExactAudioCopyFreeDBPlugin 1.0
#
DISCID=db12be0f
DTITLE=Steve Tenpenny Band - Live From Texas
DYEAR=2006
DGENRE=Country
TTITLE0=Train to Nowhere
TTITLE1=San Antone
TTITLE2=Annie's Song
TTITLE3=Dixieland High
TTITLE4=Star-Crossed Lover
TTITLE5=I'm Gone
TTITLE6=Tribute to Shaver: I Been to Georgia On A Fast Train - Black R
TTITLE6=ose
TTITLE7=What Am I to Do
TTITLE8=Westbound Sun
TTITLE9=Mexico
TTITLE10=Angel
TTITLE11=Good Beer And Good Buddies
TTITLE12=In Between
TTITLE13=Mrs. Robinson
TTITLE14=Texas Girl
EXTD=
EXTT0=
EXTT1=
EXTT2=
EXTT3=
EXTT4=
EXTT5=
EXTT6=
EXTT7=
EXTT8=
EXTT9=
EXTT10=
EXTT11=
EXTT12=
EXTT13=
EXTT14=
PLAYORDER=
